<svg width="8" height="7" viewBox="0 0 8 7" fill="none" xmlns="http://www.w3.org/2000/svg">
<path d="M7.2349 0.550361C6.9015 0.293211 6.4228 0.35498 6.1657 0.68832L3.15079 4.59652L1.78546 3.14852C1.49664 2.84215 1.01419 2.82796 0.70786 3.11682C0.40154 3.40562 0.38735 3.88802 0.67617 4.19442L2.08436 5.68792C2.20123 5.81202 2.3376 5.95682 2.47093 6.06332C2.62979 6.19022 2.88712 6.34872 3.23666 6.33142C3.5862 6.31412 3.82663 6.13102 3.97217 5.98902C4.0943 5.86982 4.2157 5.71232 4.3198 5.57732L7.3729 1.61956C7.63 1.28622 7.5682 0.807521 7.2349 0.550361Z" fill="#89FF87"/>
</svg>
