<svg width="17" height="13" viewBox="0 0 17 13" fill="none" xmlns="http://www.w3.org/2000/svg">
<path fill-rule="evenodd" clip-rule="evenodd" d="M8.36817 0C6.83446 0 5.34109 0.381721 4.3158 1.51939C3.84845 2.03797 3.52322 2.66632 3.32866 3.38857C3.31652 3.43362 3.30642 3.47111 3.29731 3.50382C3.26034 3.5137 3.21781 3.52469 3.16622 3.53799C2.53813 3.69999 1.97371 3.97974 1.49662 4.37587C0.468813 5.22927 0 6.48919 0 7.84582C0 9.58929 0.548741 10.947 1.62814 11.845C2.67611 12.7169 4.04039 13 5.35039 13C5.3943 13 5.4381 12.9994 5.48179 12.9985C5.49671 12.9994 5.51177 13 5.52695 13H12.69H12.6988H12.8732C12.8992 13 12.9248 12.9985 12.9499 12.9955C13.8949 12.9612 14.8902 12.7229 15.6791 12.0669C16.5687 11.3272 17 10.2227 17 8.85926C17 7.81804 16.6746 6.74489 15.8768 5.97469C15.4709 5.58269 14.9727 5.29992 14.4026 5.14404C14.3013 5.11634 14.2229 5.09481 14.1607 5.07678C14.159 5.02451 14.1578 4.96015 14.1562 4.87883C14.1335 3.68205 13.7205 2.57874 12.9108 1.71419C11.853 0.58474 10.2511 0 8.36817 0ZM5.48262 12.9661L5.48345 12.9984L5.48179 12.9985L5.4801 12.9983L5.48262 12.9661ZM12.9472 12.9633L12.9485 12.9955H12.9499L12.9515 12.9954L12.9472 12.9633ZM3.29731 3.50382L3.31579 3.49885L3.32504 3.52996L3.29235 3.52155L3.29731 3.50382ZM5.26195 2.30778C5.95654 1.53705 7.02647 1.20385 8.36817 1.20385C9.98759 1.20385 11.2149 1.70245 11.9805 2.51981C12.5674 3.1465 12.8866 3.96233 12.9044 4.90081L12.9049 4.92299C12.9077 5.07287 12.9105 5.22177 12.9237 5.34345C12.9366 5.46101 12.9678 5.66817 13.1141 5.85123C13.2652 6.04008 13.4781 6.12258 13.5907 6.16302C13.7152 6.20771 13.8734 6.25095 14.0382 6.29599L14.0601 6.30199C14.4265 6.40217 14.7365 6.57971 14.9898 6.82419C15.4907 7.30787 15.748 8.03879 15.748 8.85926C15.748 9.97766 15.402 10.7058 14.8601 11.1564C14.35 11.5806 13.6513 11.7718 12.8575 11.794C12.8447 11.7943 12.8319 11.7951 12.8194 11.7961H12.7111H12.7H12.6989H12.69H5.58722C5.55897 11.7934 5.53023 11.7925 5.50114 11.7935C5.45114 11.7952 5.40089 11.7961 5.35039 11.7961C4.20397 11.7961 3.18193 11.5459 2.44735 10.9347C1.71547 10.3257 1.25198 9.34424 1.25198 7.84582C1.25198 6.74862 1.62648 5.8586 2.31487 5.28703C2.63971 5.01732 3.03229 4.81894 3.49057 4.70074L3.50892 4.69601C3.61924 4.66757 3.73447 4.63787 3.82947 4.60546C3.92794 4.57188 4.08385 4.51076 4.21766 4.38088C4.34964 4.25277 4.41176 4.1056 4.44632 4.00992C4.47896 3.91956 4.50825 3.81075 4.53588 3.7081L4.54064 3.69044C4.69384 3.12173 4.93824 2.66697 5.26195 2.30778Z" fill="#FF0000"/>
</svg>
