<svg width="3" height="5" viewBox="0 0 3 5" fill="none" xmlns="http://www.w3.org/2000/svg">
<path d="M2.87165 0.21399C2.70045 -0.0713299 2.42288 -0.0713299 2.25168 0.21399L1.50003 1.46674L0.748339 0.21399C0.577145 -0.0713299 0.299589 -0.0713299 0.128395 0.21399C-0.0427984 0.499309 -0.0427984 0.961906 0.128395 1.24726L0.880061 2.50001L0.128395 3.75275C-0.0427984 4.03807 -0.0427984 4.50069 0.128395 4.78601C0.299589 5.07133 0.577145 5.07133 0.748339 4.78601L1.50003 3.53317L2.25168 4.78601C2.42288 5.07133 2.7004 5.07133 2.87165 4.78601C3.04278 4.50069 3.04278 4.03807 2.87165 3.75275L2.11994 2.50001L2.87165 1.24726C3.04278 0.961906 3.04278 0.499309 2.87165 0.21399Z" fill="#FF0000"/>
</svg>
