<svg width="18" height="18" viewBox="0 0 18 18" fill="none" xmlns="http://www.w3.org/2000/svg">
<path fill-rule="evenodd" clip-rule="evenodd" d="M9 0C5.81334 0 3.23004 2.58362 3.23004 5.77068V7.35013C3.23004 7.84948 2.97101 8.31308 2.54579 8.57478L1.31292 9.3336C-0.678058 10.5589 -0.337102 13.5507 1.87852 14.2965L2.72424 14.5812C3.57715 14.8683 4.44484 15.0953 5.32111 15.2621L5.32294 15.266C5.45942 15.5552 5.66974 15.9445 5.96479 16.338C6.54706 17.1146 7.53539 18 9 18C10.4646 18 11.453 17.1146 12.0352 16.338C12.3303 15.9445 12.5406 15.5552 12.6771 15.266L12.6789 15.2621C13.5552 15.0953 14.4228 14.8683 15.2757 14.5812L16.1215 14.2965C18.3371 13.5507 18.6781 10.5589 16.6871 9.3336L15.4542 8.57478C15.029 8.31308 14.77 7.84948 14.77 7.35013V5.77068C14.77 2.58362 12.1867 0 9 0ZM10.9213 15.5151C9.6436 15.6405 8.35648 15.6405 7.07872 15.5151C7.5344 16.1199 8.15984 16.615 9 16.615C9.8402 16.615 10.4656 16.1199 10.9213 15.5151ZM4.61483 5.77068C4.61483 3.34852 6.57814 1.38496 9 1.38496C11.4219 1.38496 13.3852 3.34852 13.3852 5.77068V7.35013C13.3852 8.33042 13.8937 9.2405 14.7284 9.7543L15.9613 10.5131C16.9525 11.1231 16.7828 12.6126 15.6797 12.9839L14.834 13.2686C11.049 14.5427 6.951 14.5427 3.16599 13.2686L2.32027 12.9839C1.21721 12.6126 1.04747 11.1231 2.03868 10.5131L3.27156 9.7543C4.10633 9.2405 4.61483 8.33042 4.61483 7.35013V5.77068Z" fill="#FBC000"/>
</svg>
